<?xml version="1.0" encoding="utf-8"?>
<!-- Generator: Adobe Illustrator 18.0.0, SVG Export Plug-In . SVG Version: 6.00 Build 0)  -->
<!DOCTYPE svg PUBLIC "-//W3C//DTD SVG 1.1//EN" "http://www.w3.org/Graphics/SVG/1.1/DTD/svg11.dtd">
<svg version="1.1" xmlns="http://www.w3.org/2000/svg" xmlns:xlink="http://www.w3.org/1999/xlink" x="0px" y="0px"
	 viewBox="0 0 1400 980" enable-background="new 0 0 1400 980" xml:space="preserve">
<g id="Background">
	<rect x="-8" y="-6.7" fill="#FEF9FB" width="1416" height="991.2"/>
</g>
<g id="Object">
	<g>
		<rect x="-0.2" y="810.2" fill="#FFC715" width="1402.2" height="86.1"/>
		<polygon fill="#371000" points="22.6,810.2 -0.2,841.2 -0.2,896.2 13,896.2 76.1,810.2 		"/>
		<polygon fill="#371000" points="36.8,896.2 90.4,896.2 153.5,810.2 100,810.2 		"/>
		<polygon fill="#371000" points="114.2,896.2 167.8,896.2 230.9,810.2 177.4,810.2 		"/>
		<polygon fill="#371000" points="191.6,896.2 245.2,896.2 308.3,810.2 254.8,810.2 		"/>
		<polygon fill="#371000" points="269.1,896.2 322.6,896.2 385.7,810.2 332.2,810.2 		"/>
		<polygon fill="#371000" points="346.5,896.2 400,896.2 463.2,810.2 409.6,810.2 		"/>
		<polygon fill="#371000" points="423.9,896.2 477.4,896.2 540.6,810.2 487,810.2 		"/>
		<polygon fill="#371000" points="501.3,896.2 554.8,896.2 618,810.2 564.4,810.2 		"/>
		<polygon fill="#371000" points="578.7,896.2 632.2,896.2 695.4,810.2 641.8,810.2 		"/>
		<polygon fill="#371000" points="656.1,896.2 709.6,896.2 772.8,810.2 719.2,810.2 		"/>
		<polygon fill="#371000" points="733.5,896.2 787.1,896.2 850.2,810.2 796.6,810.2 		"/>
		<polygon fill="#371000" points="810.9,896.2 864.5,896.2 927.6,810.2 874,810.2 		"/>
		<polygon fill="#371000" points="888.3,896.2 941.9,896.2 1005,810.2 951.5,810.2 		"/>
		<polygon fill="#371000" points="965.7,896.2 1019.3,896.2 1082.4,810.2 1028.9,810.2 		"/>
		<polygon fill="#371000" points="1043.1,896.2 1096.7,896.2 1159.8,810.2 1106.3,810.2 		"/>
		<polygon fill="#371000" points="1120.5,896.2 1174.1,896.2 1237.2,810.2 1183.7,810.2 		"/>
		<polygon fill="#371000" points="1198,896.2 1251.5,896.2 1314.6,810.2 1261.1,810.2 		"/>
		<polygon fill="#371000" points="1275.4,896.2 1328.9,896.2 1392.1,810.2 1338.5,810.2 		"/>
		<polygon fill="#371000" points="1402,896.2 1402,829.1 1352.8,896.2 		"/>
	</g>
	<g>
		<polygon fill="#FFC715" points="981,665.2 917.9,751.3 975.2,751.3 1038.3,665.2 		"/>
		<polygon fill="#FFC715" points="671.4,665.2 608.3,751.3 665.6,751.3 728.7,665.2 		"/>
		<polygon fill="#FFC715" points="516.6,665.2 453.4,751.3 510.8,751.3 573.9,665.2 		"/>
		<polygon fill="#FFC715" points="748.8,665.2 685.7,751.3 743,751.3 806.1,665.2 		"/>
		<polygon fill="#FFC715" points="826.2,665.2 763.1,751.3 820.4,751.3 883.5,665.2 		"/>
		<polygon fill="#FFC715" points="903.6,665.2 840.5,751.3 897.8,751.3 960.9,665.2 		"/>
		<polygon fill="#FFC715" points="52.1,665.2 -0.2,736.6 -0.2,751.3 46.3,751.3 109.4,665.2 		"/>
		<polygon fill="#FFC715" points="129.5,665.2 66.4,751.3 123.7,751.3 186.9,665.2 		"/>
		<polygon fill="#FFC715" points="1058.4,665.2 995.3,751.3 1052.6,751.3 1115.8,665.2 		"/>
		<polygon fill="#FFC715" points="-0.2,665.2 -0.2,709.2 32,665.2 		"/>
		<polygon fill="#FFC715" points="361.8,665.2 298.6,751.3 355.9,751.3 419.1,665.2 		"/>
		<polygon fill="#FFC715" points="439.2,665.2 376,751.3 433.4,751.3 496.5,665.2 		"/>
		<polygon fill="#FFC715" points="284.3,665.2 221.2,751.3 278.5,751.3 341.7,665.2 		"/>
		<polygon fill="#FFC715" points="206.9,665.2 143.8,751.3 201.1,751.3 264.3,665.2 		"/>
		<polygon fill="#FFC715" points="594,665.2 530.8,751.3 588.2,751.3 651.3,665.2 		"/>
		<polygon fill="#FFC715" points="1402,724.5 1382.3,751.3 1402,751.3 		"/>
		<polygon fill="#FFC715" points="1213.2,665.2 1150.1,751.3 1207.4,751.3 1270.6,665.2 		"/>
		<polygon fill="#FFC715" points="1135.8,665.2 1072.7,751.3 1130,751.3 1193.2,665.2 		"/>
		<polygon fill="#FFC715" points="1290.7,665.2 1227.5,751.3 1284.8,751.3 1348,665.2 		"/>
		<polygon fill="#FFC715" points="1402,665.2 1368.1,665.2 1304.9,751.3 1362.3,751.3 1402,697.1 		"/>
		<polygon fill="#371000" points="32,665.2 -0.2,709.2 -0.2,736.6 52.1,665.2 		"/>
		<polygon fill="#371000" points="109.4,665.2 46.3,751.3 66.4,751.3 129.5,665.2 		"/>
		<polygon fill="#371000" points="186.9,665.2 123.7,751.3 143.8,751.3 206.9,665.2 		"/>
		<polygon fill="#371000" points="264.3,665.2 201.1,751.3 221.2,751.3 284.3,665.2 		"/>
		<polygon fill="#371000" points="341.7,665.2 278.5,751.3 298.6,751.3 361.8,665.2 		"/>
		<polygon fill="#371000" points="419.1,665.2 355.9,751.3 376,751.3 439.2,665.2 		"/>
		<polygon fill="#371000" points="496.5,665.2 433.4,751.3 453.4,751.3 516.6,665.2 		"/>
		<polygon fill="#371000" points="573.9,665.2 510.8,751.3 530.8,751.3 594,665.2 		"/>
		<polygon fill="#371000" points="651.3,665.2 588.2,751.3 608.3,751.3 671.4,665.2 		"/>
		<polygon fill="#371000" points="728.7,665.2 665.6,751.3 685.7,751.3 748.8,665.2 		"/>
		<polygon fill="#371000" points="806.1,665.2 743,751.3 763.1,751.3 826.2,665.2 		"/>
		<polygon fill="#371000" points="883.5,665.2 820.4,751.3 840.5,751.3 903.6,665.2 		"/>
		<polygon fill="#371000" points="960.9,665.2 897.8,751.3 917.9,751.3 981,665.2 		"/>
		<polygon fill="#371000" points="1038.3,665.2 975.2,751.3 995.3,751.3 1058.4,665.2 		"/>
		<polygon fill="#371000" points="1115.8,665.2 1052.6,751.3 1072.7,751.3 1135.8,665.2 		"/>
		<polygon fill="#371000" points="1193.2,665.2 1130,751.3 1150.1,751.3 1213.2,665.2 		"/>
		<polygon fill="#371000" points="1270.6,665.2 1207.4,751.3 1227.5,751.3 1290.7,665.2 		"/>
		<polygon fill="#371000" points="1348,665.2 1284.8,751.3 1304.9,751.3 1368.1,665.2 		"/>
		<polygon fill="#371000" points="1402,697.1 1362.3,751.3 1382.3,751.3 1402,724.5 		"/>
	</g>
	<g>
		<polygon fill="#FFC715" points="679.4,520.3 616.2,606.3 653.5,606.3 716.6,520.3 		"/>
		<polygon fill="#FFC715" points="524.6,520.3 461.4,606.3 498.7,606.3 561.8,520.3 		"/>
		<polygon fill="#FFC715" points="602,520.3 538.8,606.3 576.1,606.3 639.2,520.3 		"/>
		<polygon fill="#FFC715" points="1066.4,520.3 1003.3,606.3 1040.5,606.3 1103.7,520.3 		"/>
		<polygon fill="#FFC715" points="989,520.3 925.9,606.3 963.1,606.3 1026.2,520.3 		"/>
		<polygon fill="#FFC715" points="911.6,520.3 848.5,606.3 885.7,606.3 948.8,520.3 		"/>
		<polygon fill="#FFC715" points="834.2,520.3 771,606.3 808.3,606.3 871.4,520.3 		"/>
		<polygon fill="#FFC715" points="756.8,520.3 693.6,606.3 730.9,606.3 794,520.3 		"/>
		<polygon fill="#FFC715" points="60.1,520.3 -0.2,602.5 -0.2,606.3 34.2,606.3 97.3,520.3 		"/>
		<polygon fill="#FFC715" points="137.5,520.3 74.4,606.3 111.6,606.3 174.8,520.3 		"/>
		<polygon fill="#FFC715" points="-0.2,520.3 -0.2,547.8 19.9,520.3 		"/>
		<polygon fill="#FFC715" points="292.3,520.3 229.2,606.3 266.4,606.3 329.6,520.3 		"/>
		<polygon fill="#FFC715" points="369.7,520.3 306.6,606.3 343.8,606.3 407,520.3 		"/>
		<polygon fill="#FFC715" points="447.1,520.3 384,606.3 421.2,606.3 484.4,520.3 		"/>
		<polygon fill="#FFC715" points="214.9,520.3 151.8,606.3 189,606.3 252.2,520.3 		"/>
		<polygon fill="#FFC715" points="1402,590.4 1390.3,606.3 1402,606.3 		"/>
		<polygon fill="#FFC715" points="1298.6,520.3 1235.5,606.3 1272.7,606.3 1335.9,520.3 		"/>
		<polygon fill="#FFC715" points="1221.2,520.3 1158.1,606.3 1195.3,606.3 1258.5,520.3 		"/>
		<polygon fill="#FFC715" points="1143.8,520.3 1080.7,606.3 1117.9,606.3 1181.1,520.3 		"/>
		<polygon fill="#FFC715" points="1402,520.3 1376,520.3 1312.9,606.3 1350.1,606.3 1402,535.6 		"/>
		<polygon fill="#371000" points="19.9,520.3 -0.2,547.8 -0.2,602.5 60.1,520.3 		"/>
		<polygon fill="#371000" points="97.3,520.3 34.2,606.3 74.4,606.3 137.5,520.3 		"/>
		<polygon fill="#371000" points="174.8,520.3 111.6,606.3 151.8,606.3 214.9,520.3 		"/>
		<polygon fill="#371000" points="252.2,520.3 189,606.3 229.2,606.3 292.3,520.3 		"/>
		<polygon fill="#371000" points="329.6,520.3 266.4,606.3 306.6,606.3 369.7,520.3 		"/>
		<polygon fill="#371000" points="407,520.3 343.8,606.3 384,606.3 447.1,520.3 		"/>
		<polygon fill="#371000" points="484.4,520.3 421.2,606.3 461.4,606.3 524.6,520.3 		"/>
		<polygon fill="#371000" points="561.8,520.3 498.7,606.3 538.8,606.3 602,520.3 		"/>
		<polygon fill="#371000" points="639.2,520.3 576.1,606.3 616.2,606.3 679.4,520.3 		"/>
		<polygon fill="#371000" points="716.6,520.3 653.5,606.3 693.6,606.3 756.8,520.3 		"/>
		<polygon fill="#371000" points="794,520.3 730.9,606.3 771,606.3 834.2,520.3 		"/>
		<polygon fill="#371000" points="871.4,520.3 808.3,606.3 848.5,606.3 911.6,520.3 		"/>
		<polygon fill="#371000" points="948.8,520.3 885.7,606.3 925.9,606.3 989,520.3 		"/>
		<polygon fill="#371000" points="1026.2,520.3 963.1,606.3 1003.3,606.3 1066.4,520.3 		"/>
		<polygon fill="#371000" points="1103.7,520.3 1040.5,606.3 1080.7,606.3 1143.8,520.3 		"/>
		<polygon fill="#371000" points="1181.1,520.3 1117.9,606.3 1158.1,606.3 1221.2,520.3 		"/>
		<polygon fill="#371000" points="1258.5,520.3 1195.3,606.3 1235.5,606.3 1298.6,520.3 		"/>
		<polygon fill="#371000" points="1335.9,520.3 1272.7,606.3 1312.9,606.3 1376,520.3 		"/>
		<polygon fill="#371000" points="1402,535.6 1350.1,606.3 1390.3,606.3 1402,590.4 		"/>
	</g>
	<g>
		<polygon fill="#FFC715" points="1172.7,156.1 1195.3,156.1 1206.4,156.1 1169.7,113 1206.4,70 1181.1,70 1172.7,70 1136,113 		"/>
		<polygon fill="#FFC715" points="900.8,156.1 925.9,156.1 934.5,156.1 897.8,113 934.5,70 911.6,70 900.8,70 864.1,113 		"/>
		<polygon fill="#FFC715" points="538.3,156.1 538.8,156.1 571.9,156.1 535.2,113 571.9,70 561.8,70 538.3,70 501.6,113 		"/>
		<polygon fill="#FFC715" points="266.4,156.1 266.4,156.1 300,156.1 263.3,113 300,70 292.3,70 266.4,70 229.7,113 		"/>
		<polygon fill="#FFC715" points="1082.1,156.1 1115.7,156.1 1079,113 1115.7,70 1103.7,70 1082.1,70 1045.4,113 		"/>
		<polygon fill="#FFC715" points="19.9,70 -0.2,70 -0.2,97.5 -0.2,103.3 28.1,70 		"/>
		<polygon fill="#FFC715" points="991.5,156.1 1003.3,156.1 1025.1,156.1 988.4,113 1025.1,70 991.5,70 954.8,113 		"/>
		<polygon fill="#FFC715" points="357,156.1 384,156.1 390.7,156.1 354,113 390.7,70 369.7,70 357,70 320.3,113 		"/>
		<polygon fill="#FFC715" points="-0.2,152.3 -0.2,156.1 28.1,156.1 -0.2,122.8 		"/>
		<polygon fill="#FFC715" points="447.7,156.1 461.4,156.1 481.3,156.1 444.6,113 481.3,70 447.7,70 411,113 		"/>
		<polygon fill="#FFC715" points="719.6,156.1 730.9,156.1 753.2,156.1 716.5,113 753.2,70 719.6,70 682.9,113 		"/>
		<polygon fill="#FFC715" points="1354,156.1 1387.6,156.1 1350.9,113 1387.6,70 1376,70 1354,70 1317.3,113 		"/>
		<polygon fill="#FFC715" points="85.1,156.1 111.6,156.1 118.8,156.1 82.1,113 118.8,70 97.3,70 85.1,70 48.4,113 		"/>
		<polygon fill="#FFC715" points="810.2,156.1 843.8,156.1 807.1,113 843.8,70 834.2,70 810.2,70 773.5,113 		"/>
		<polygon fill="#FFC715" points="628.9,156.1 653.5,156.1 662.6,156.1 625.9,113 662.6,70 639.2,70 628.9,70 592.2,113 		"/>
		<polygon fill="#FFC715" points="1263.3,156.1 1272.7,156.1 1297,156.1 1260.3,113 1297,70 1263.3,70 1226.6,113 		"/>
		<polygon fill="#FFC715" points="175.8,156.1 189,156.1 209.4,156.1 172.7,113 209.4,70 175.8,70 139.1,113 		"/>
		<polygon fill="#371000" points="34.7,156.1 25.8,145.6 49.3,123.1 77.4,156.1 85.1,156.1 48.4,113 85.1,70 60.1,70 28.1,70 
			-0.2,103.3 -0.2,122.8 28.1,156.1 34.2,156.1 		"/>
		<polygon fill="#371000" points="118.8,156.1 125.3,156.1 116.4,145.6 140,123.1 168.1,156.1 175.8,156.1 139.1,113 175.8,70 
			174.8,70 137.5,70 118.8,70 82.1,113 		"/>
		<polygon fill="#371000" points="209.4,156.1 216,156.1 207,145.6 230.6,123.1 258.7,156.1 266.4,156.1 229.7,113 266.4,70 
			252.2,70 214.9,70 209.4,70 172.7,113 		"/>
		<polygon fill="#371000" points="300,156.1 306.6,156.1 297.7,145.6 321.2,123.1 349.3,156.1 357,156.1 320.3,113 357,70 329.6,70 
			300,70 263.3,113 		"/>
		<polygon fill="#371000" points="390.7,156.1 397.2,156.1 388.3,145.6 411.9,123.1 440,156.1 447.7,156.1 411,113 447.7,70 
			447.1,70 407,70 390.7,70 354,113 		"/>
		<polygon fill="#371000" points="481.3,156.1 487.9,156.1 478.9,145.6 502.5,123.1 530.6,156.1 538.3,156.1 501.6,113 538.3,70 
			524.6,70 484.4,70 481.3,70 444.6,113 		"/>
		<polygon fill="#371000" points="571.9,156.1 576.1,156.1 578.5,156.1 569.6,145.6 593.1,123.1 621.2,156.1 628.9,156.1 592.2,113 
			628.9,70 602,70 571.9,70 535.2,113 		"/>
		<polygon fill="#371000" points="662.6,156.1 669.1,156.1 660.2,145.6 683.8,123.1 711.9,156.1 719.6,156.1 682.9,113 719.6,70 
			716.6,70 679.4,70 662.6,70 625.9,113 		"/>
		<polygon fill="#371000" points="753.2,156.1 759.8,156.1 750.8,145.6 774.4,123.1 802.5,156.1 808.3,156.1 810.2,156.1 773.5,113 
			810.2,70 794,70 756.8,70 753.2,70 716.5,113 		"/>
		<polygon fill="#371000" points="843.8,156.1 848.5,156.1 850.4,156.1 841.5,145.6 865,123.1 893.1,156.1 900.8,156.1 864.1,113 
			900.8,70 871.4,70 843.8,70 807.1,113 		"/>
		<polygon fill="#371000" points="934.5,156.1 941,156.1 932.1,145.6 955.7,123.1 983.8,156.1 991.5,156.1 954.8,113 991.5,70 
			989,70 948.8,70 934.5,70 897.8,113 		"/>
		<polygon fill="#371000" points="1025.1,156.1 1031.6,156.1 1022.7,145.6 1046.3,123.1 1074.4,156.1 1080.7,156.1 1082.1,156.1 
			1045.4,113 1082.1,70 1066.4,70 1026.2,70 1025.1,70 988.4,113 		"/>
		<polygon fill="#371000" points="1115.7,156.1 1117.9,156.1 1122.3,156.1 1113.4,145.6 1136.9,123.1 1165,156.1 1172.7,156.1 
			1136,113 1172.7,70 1143.8,70 1115.7,70 1079,113 		"/>
		<polygon fill="#371000" points="1206.4,156.1 1212.9,156.1 1204,145.6 1227.6,123.1 1255.7,156.1 1263.3,156.1 1226.6,113 
			1263.3,70 1258.5,70 1221.2,70 1206.4,70 1169.7,113 		"/>
		<polygon fill="#371000" points="1297,156.1 1303.5,156.1 1294.6,145.6 1318.2,123.1 1346.3,156.1 1350.1,156.1 1354,156.1 
			1317.3,113 1354,70 1335.9,70 1298.6,70 1297,70 1260.3,113 		"/>
		<polygon fill="#371000" points="1387.6,156.1 1390.3,156.1 1402,156.1 1402,140.1 1402,85.4 1402,70 1387.6,70 1350.9,113 		"/>
		<polygon fill="#371000" points="1346.3,156.1 1318.2,123.1 1294.6,145.6 1303.5,156.1 1312.9,156.1 		"/>
		<polygon fill="#371000" points="1255.7,156.1 1227.6,123.1 1204,145.6 1212.9,156.1 1235.5,156.1 		"/>
		<polygon fill="#371000" points="1165,156.1 1136.9,123.1 1113.4,145.6 1122.3,156.1 1158.1,156.1 		"/>
		<polygon fill="#371000" points="1074.4,156.1 1046.3,123.1 1022.7,145.6 1031.6,156.1 1040.5,156.1 		"/>
		<polygon fill="#371000" points="983.8,156.1 955.7,123.1 932.1,145.6 941,156.1 963.1,156.1 		"/>
		<polygon fill="#371000" points="893.1,156.1 865,123.1 841.5,145.6 850.4,156.1 885.7,156.1 		"/>
		<polygon fill="#371000" points="802.5,156.1 774.4,123.1 750.8,145.6 759.8,156.1 771,156.1 		"/>
		<polygon fill="#371000" points="711.9,156.1 683.8,123.1 660.2,145.6 669.1,156.1 693.6,156.1 		"/>
		<polygon fill="#371000" points="621.2,156.1 593.1,123.1 569.6,145.6 578.5,156.1 616.2,156.1 		"/>
		<polygon fill="#371000" points="530.6,156.1 502.5,123.1 478.9,145.6 487.9,156.1 498.7,156.1 		"/>
		<polygon fill="#371000" points="440,156.1 411.9,123.1 388.3,145.6 397.2,156.1 421.2,156.1 		"/>
		<polygon fill="#371000" points="343.8,156.1 349.3,156.1 321.2,123.1 297.7,145.6 306.6,156.1 306.6,156.1 		"/>
		<polygon fill="#371000" points="258.7,156.1 230.6,123.1 207,145.6 216,156.1 229.2,156.1 		"/>
		<polygon fill="#371000" points="168.1,156.1 140,123.1 116.4,145.6 125.3,156.1 151.8,156.1 		"/>
		<polygon fill="#371000" points="77.4,156.1 49.3,123.1 25.8,145.6 34.7,156.1 74.4,156.1 		"/>
	</g>
	<g>
		<polygon fill="#FFC715" points="566.4,248.2 562.8,251.7 531.5,215 516.6,215 497.9,215 503.6,221.6 499.3,225.7 526.9,258 
			490.2,301 510.8,301 530.8,301 538,301 574.7,258 		"/>
		<polygon fill="#FFC715" points="1347.2,215 1313.5,215 1319.3,221.6 1315,225.7 1342.5,258 1305.8,301 1353.7,301 1390.4,258 
			1382.1,248.2 1378.5,251.7 		"/>
		<polygon fill="#FFC715" points="1200.8,248.2 1197.2,251.7 1165.9,215 1135.8,215 1132.3,215 1138,221.6 1133.7,225.7 1161.3,258 
			1124.6,301 1130,301 1150.1,301 1172.5,301 1209.2,258 		"/>
		<polygon fill="#FFC715" points="1402,301 1402,294.6 1396.5,301 		"/>
		<polygon fill="#FFC715" points="1291.5,248.2 1287.9,251.7 1256.6,215 1222.9,215 1228.6,221.6 1224.4,225.7 1251.9,258 
			1215.2,301 1227.5,301 1263.1,301 1299.8,258 		"/>
		<polygon fill="#FFC715" points="747.7,248.2 744.1,251.7 712.8,215 679.1,215 684.8,221.6 680.6,225.7 708.1,258 671.4,301 
			685.7,301 719.3,301 756,258 		"/>
		<polygon fill="#FFC715" points="838.3,248.2 834.7,251.7 803.4,215 769.7,215 775.5,221.6 771.2,225.7 798.8,258 762.1,301 
			763.1,301 809.9,301 846.6,258 		"/>
		<polygon fill="#FFC715" points="657,248.2 653.4,251.7 622.1,215 594,215 588.5,215 594.2,221.6 590,225.7 617.5,258 580.8,301 
			588.2,301 608.3,301 628.7,301 665.4,258 		"/>
		<polygon fill="#FFC715" points="1019.6,248.2 1016,251.7 984.7,215 981,215 960.9,215 951,215 956.7,221.6 952.5,225.7 980,258 
			943.3,301 975.2,301 991.2,301 1027.9,258 		"/>
		<polygon fill="#FFC715" points="928.9,248.2 925.3,251.7 894,215 883.5,215 860.4,215 866.1,221.6 861.9,225.7 889.4,258 
			852.7,301 897.8,301 900.6,301 937.3,258 		"/>
		<polygon fill="#FFC715" points="1110.2,248.2 1106.6,251.7 1075.3,215 1058.4,215 1041.6,215 1047.4,221.6 1043.1,225.7 
			1070.6,258 1034,301 1052.6,301 1072.7,301 1081.8,301 1118.5,258 		"/>
		<polygon fill="#FFC715" points="294.5,248.2 290.9,251.7 259.6,215 226,215 231.7,221.6 227.4,225.7 255,258 218.3,301 221.2,301 
			266.2,301 302.9,258 		"/>
		<polygon fill="#FFC715" points="475.8,248.2 472.2,251.7 440.9,215 439.2,215 419.1,215 407.2,215 412.9,221.6 408.7,225.7 
			436.2,258 399.5,301 433.4,301 447.4,301 484.1,258 		"/>
		<polygon fill="#FFC715" points="385.1,248.2 381.5,251.7 350.2,215 341.7,215 316.6,215 322.3,221.6 318.1,225.7 345.6,258 
			308.9,301 355.9,301 356.8,301 393.5,258 		"/>
		<polygon fill="#FFC715" points="-0.2,221.4 -0.2,259 -0.2,286.3 -0.2,294.6 31,258 		"/>
		<polygon fill="#FFC715" points="113.2,248.2 109.6,251.7 78.3,215 52.1,215 37,215 73.7,258 37,301 46.3,301 66.4,301 84.9,301 
			121.6,258 		"/>
		<polygon fill="#FFC715" points="175.5,301 212.2,258 203.9,248.2 200.3,251.7 169,215 135.3,215 141,221.6 136.8,225.7 164.3,258 
			127.6,301 143.8,301 		"/>
		<polygon fill="#FFC715" points="113.2,248.2 84.9,215 78.3,215 109.6,251.7 		"/>
		<polygon fill="#FFC715" points="135.3,215 129.5,215 127.6,215 136.8,225.7 141,221.6 		"/>
		<polygon fill="#FFC715" points="231.7,221.6 226,215 218.3,215 227.4,225.7 		"/>
		<polygon fill="#FFC715" points="169,215 200.3,251.7 203.9,248.2 175.5,215 		"/>
		<polygon fill="#FFC715" points="322.3,221.6 316.6,215 308.9,215 318.1,225.7 		"/>
		<polygon fill="#FFC715" points="294.5,248.2 266.2,215 264.3,215 259.6,215 290.9,251.7 		"/>
		<polygon fill="#FFC715" points="412.9,221.6 407.2,215 399.5,215 408.7,225.7 		"/>
		<polygon fill="#FFC715" points="385.1,248.2 356.8,215 350.2,215 381.5,251.7 		"/>
		<polygon fill="#FFC715" points="503.6,221.6 497.9,215 496.5,215 490.2,215 499.3,225.7 		"/>
		<polygon fill="#FFC715" points="475.8,248.2 447.4,215 440.9,215 472.2,251.7 		"/>
		<polygon fill="#FFC715" points="566.4,248.2 538,215 531.5,215 562.8,251.7 		"/>
		<polygon fill="#FFC715" points="594.2,221.6 588.5,215 580.8,215 590,225.7 		"/>
		<polygon fill="#FFC715" points="657,248.2 628.7,215 622.1,215 653.4,251.7 		"/>
		<polygon fill="#FFC715" points="684.8,221.6 679.1,215 671.4,215 680.6,225.7 		"/>
		<polygon fill="#FFC715" points="747.7,248.2 719.3,215 712.8,215 744.1,251.7 		"/>
		<polygon fill="#FFC715" points="775.5,221.6 769.7,215 762.1,215 771.2,225.7 		"/>
		<polygon fill="#FFC715" points="866.1,221.6 860.4,215 852.7,215 861.9,225.7 		"/>
		<polygon fill="#FFC715" points="838.3,248.2 809.9,215 806.1,215 803.4,215 834.7,251.7 		"/>
		<polygon fill="#FFC715" points="956.7,221.6 951,215 943.3,215 952.5,225.7 		"/>
		<polygon fill="#FFC715" points="928.9,248.2 900.6,215 894,215 925.3,251.7 		"/>
		<polygon fill="#FFC715" points="1047.4,221.6 1041.6,215 1038.3,215 1034,215 1043.1,225.7 		"/>
		<polygon fill="#FFC715" points="1019.6,248.2 991.2,215 984.7,215 1016,251.7 		"/>
		<polygon fill="#FFC715" points="1138,221.6 1132.3,215 1124.6,215 1133.7,225.7 		"/>
		<polygon fill="#FFC715" points="1110.2,248.2 1081.8,215 1075.3,215 1106.6,251.7 		"/>
		<polygon fill="#FFC715" points="1228.6,221.6 1222.9,215 1215.2,215 1224.4,225.7 		"/>
		<polygon fill="#FFC715" points="1200.8,248.2 1172.5,215 1165.9,215 1197.2,251.7 		"/>
		<polygon fill="#FFC715" points="1319.3,221.6 1313.5,215 1305.8,215 1315,225.7 		"/>
		<polygon fill="#FFC715" points="1291.5,248.2 1263.1,215 1256.6,215 1287.9,251.7 		"/>
		<polygon fill="#FFC715" points="1348,215 1347.2,215 1378.5,251.7 1382.1,248.2 1353.7,215 		"/>
		<polygon fill="#FFC715" points="1402,215 1396.5,215 1402,221.4 		"/>
		<polygon fill="#371000" points="1402,246.8 1402,229.2 1382.1,248.2 1390.4,258 1353.7,301 1362.3,301 1365,301 1388.3,273.7 
			1400.1,285 1386.4,301 1396.5,301 1402,294.6 1402,274.2 		"/>
		<polygon fill="#371000" points="1353.7,215 1382.1,248.2 1402,229.2 1402,221.4 1396.5,215 1368.1,215 		"/>
		<polygon fill="#371000" points="1315,225.7 1291.5,248.2 1299.8,258 1263.1,301 1274.4,301 1297.7,273.7 1309.4,285 1295.7,301 
			1304.9,301 1305.8,301 1342.5,258 		"/>
		<polygon fill="#371000" points="1315,225.7 1305.8,215 1290.7,215 1270.6,215 1263.1,215 1291.5,248.2 		"/>
		<polygon fill="#371000" points="1224.4,225.7 1200.8,248.2 1209.2,258 1172.5,301 1183.7,301 1207,273.7 1218.8,285 1205.1,301 
			1207.4,301 1215.2,301 1251.9,258 		"/>
		<polygon fill="#371000" points="1224.4,225.7 1215.2,215 1213.2,215 1193.2,215 1172.5,215 1200.8,248.2 		"/>
		<polygon fill="#371000" points="1133.7,225.7 1110.2,248.2 1118.5,258 1081.8,301 1093.1,301 1116.4,273.7 1128.2,285 1114.5,301 
			1124.6,301 1161.3,258 		"/>
		<polygon fill="#371000" points="1133.7,225.7 1124.6,215 1115.8,215 1081.8,215 1110.2,248.2 		"/>
		<polygon fill="#371000" points="1043.1,225.7 1019.6,248.2 1027.9,258 991.2,301 995.3,301 1002.5,301 1025.8,273.7 1037.5,285 
			1023.8,301 1034,301 1070.6,258 		"/>
		<polygon fill="#371000" points="1043.1,225.7 1034,215 991.2,215 1019.6,248.2 		"/>
		<polygon fill="#371000" points="952.5,225.7 928.9,248.2 937.3,258 900.6,301 911.8,301 935.1,273.7 946.9,285 933.2,301 
			943.3,301 980,258 		"/>
		<polygon fill="#371000" points="952.5,225.7 943.3,215 903.6,215 900.6,215 928.9,248.2 		"/>
		<polygon fill="#371000" points="861.9,225.7 838.3,248.2 846.6,258 809.9,301 820.4,301 821.2,301 844.5,273.7 856.3,285 
			842.6,301 852.7,301 889.4,258 		"/>
		<polygon fill="#371000" points="861.9,225.7 852.7,215 826.2,215 809.9,215 838.3,248.2 		"/>
		<polygon fill="#371000" points="771.2,225.7 747.7,248.2 756,258 719.3,301 730.6,301 753.9,273.7 765.6,285 751.9,301 762.1,301 
			798.8,258 		"/>
		<polygon fill="#371000" points="771.2,225.7 762.1,215 748.8,215 728.7,215 719.3,215 747.7,248.2 		"/>
		<polygon fill="#371000" points="680.6,225.7 657,248.2 665.4,258 628.7,301 639.9,301 663.2,273.7 675,285 661.3,301 665.6,301 
			671.4,301 708.1,258 		"/>
		<polygon fill="#371000" points="680.6,225.7 671.4,215 671.4,215 651.3,215 628.7,215 657,248.2 		"/>
		<polygon fill="#371000" points="590,225.7 566.4,248.2 574.7,258 538,301 549.3,301 572.6,273.7 584.4,285 570.7,301 580.8,301 
			617.5,258 		"/>
		<polygon fill="#371000" points="590,225.7 580.8,215 573.9,215 538,215 566.4,248.2 		"/>
		<polygon fill="#371000" points="499.3,225.7 475.8,248.2 484.1,258 447.4,301 453.4,301 458.7,301 482,273.7 493.8,285 480,301 
			490.2,301 526.9,258 		"/>
		<polygon fill="#371000" points="499.3,225.7 490.2,215 447.4,215 475.8,248.2 		"/>
		<polygon fill="#371000" points="408.7,225.7 385.1,248.2 393.5,258 356.8,301 368,301 391.3,273.7 403.1,285 389.4,301 399.5,301 
			436.2,258 		"/>
		<polygon fill="#371000" points="408.7,225.7 399.5,215 361.8,215 356.8,215 385.1,248.2 		"/>
		<polygon fill="#371000" points="318.1,225.7 294.5,248.2 302.9,258 266.2,301 277.4,301 300.7,273.7 312.5,285 298.8,301 
			308.9,301 345.6,258 		"/>
		<polygon fill="#371000" points="318.1,225.7 308.9,215 284.3,215 266.2,215 294.5,248.2 		"/>
		<polygon fill="#371000" points="227.4,225.7 203.9,248.2 212.2,258 175.5,301 186.8,301 210.1,273.7 221.9,285 208.1,301 
			218.3,301 255,258 		"/>
		<polygon fill="#371000" points="218.3,215 206.9,215 186.9,215 175.5,215 203.9,248.2 227.4,225.7 		"/>
		<polygon fill="#371000" points="119.4,273.7 131.2,285 117.5,301 123.7,301 127.6,301 164.3,258 136.8,225.7 113.2,248.2 
			121.6,258 84.9,301 96.1,301 		"/>
		<polygon fill="#371000" points="109.4,215 84.9,215 113.2,248.2 136.8,225.7 127.6,215 		"/>
		<polygon fill="#371000" points="37,215 32,215 -0.2,215 -0.2,221.4 31,258 -0.2,294.6 -0.2,301 37,301 73.7,258 		"/>
		<polygon fill="#371000" points="131.2,285 119.4,273.7 96.1,301 117.5,301 		"/>
		<polygon fill="#371000" points="210.1,273.7 186.8,301 201.1,301 208.1,301 221.9,285 		"/>
		<polygon fill="#371000" points="300.7,273.7 277.4,301 278.5,301 298.6,301 298.8,301 312.5,285 		"/>
		<polygon fill="#371000" points="391.3,273.7 368,301 376,301 389.4,301 403.1,285 		"/>
		<polygon fill="#371000" points="482,273.7 458.7,301 480,301 493.8,285 		"/>
		<polygon fill="#371000" points="572.6,273.7 549.3,301 570.7,301 584.4,285 		"/>
		<polygon fill="#371000" points="663.2,273.7 639.9,301 661.3,301 675,285 		"/>
		<polygon fill="#371000" points="753.9,273.7 730.6,301 743,301 751.9,301 765.6,285 		"/>
		<polygon fill="#371000" points="844.5,273.7 821.2,301 840.5,301 842.6,301 856.3,285 		"/>
		<polygon fill="#371000" points="935.1,273.7 911.8,301 917.9,301 933.2,301 946.9,285 		"/>
		<polygon fill="#371000" points="1025.8,273.7 1002.5,301 1023.8,301 1037.5,285 		"/>
		<polygon fill="#371000" points="1116.4,273.7 1093.1,301 1114.5,301 1128.2,285 		"/>
		<polygon fill="#371000" points="1207,273.7 1183.7,301 1205.1,301 1218.8,285 		"/>
		<polygon fill="#371000" points="1297.7,273.7 1274.4,301 1284.8,301 1295.7,301 1309.4,285 		"/>
		<polygon fill="#371000" points="1386.4,301 1400.1,285 1388.3,273.7 1365,301 1382.3,301 		"/>
	</g>
	<g>
		<polygon fill="#FFC715" points="32,376.3 25.8,370.4 34.7,359.9 22.6,359.9 -0.2,359.9 -0.2,391 -0.2,446 -0.2,446 13,446 13,446 
			36.8,446 36.8,446 46,446 9.3,402.9 		"/>
		<polygon fill="#FFC715" points="213.3,376.3 207,370.4 216,359.9 177.4,359.9 168.1,359.9 140,392.9 134.4,387.5 121.3,402.9 
			158,446 167.8,446 167.8,446 191.6,446 191.6,446 227.2,446 190.5,402.9 		"/>
		<polygon fill="#FFC715" points="303.9,376.3 297.7,370.4 306.6,359.9 258.7,359.9 230.6,392.9 225,387.5 211.9,402.9 248.6,446 
			269.1,446 269.1,446 317.8,446 281.1,402.9 		"/>
		<polygon fill="#FFC715" points="122.6,376.3 116.4,370.4 125.3,359.9 100,359.9 77.4,359.9 49.3,392.9 43.8,387.5 30.6,402.9 
			67.3,446 90.4,446 90.4,446 114.2,446 114.2,446 136.6,446 99.9,402.9 		"/>
		<polygon fill="#FFC715" points="1300.8,376.3 1294.6,370.4 1303.5,359.9 1261.1,359.9 1255.7,359.9 1227.6,392.9 1222,387.5 
			1208.8,402.9 1245.5,446 1251.5,446 1251.5,446 1275.4,446 1275.4,446 1314.8,446 1278.1,402.9 		"/>
		<polygon fill="#FFC715" points="1402,363.9 1402,359.9 1392.1,359.9 1346.3,359.9 1318.2,392.9 1312.6,387.5 1299.5,402.9 
			1336.2,446 1352.8,446 1352.8,446 1402,446 1402,446 1402,442 1368.7,402.9 		"/>
		<polygon fill="#FFC715" points="1402,416.9 1402,389 1390.1,402.9 		"/>
		<polygon fill="#FFC715" points="847.7,376.3 841.5,370.4 850.4,359.9 850.2,359.9 802.5,359.9 774.4,392.9 768.8,387.5 
			755.7,402.9 792.4,446 810.9,446 810.9,446 861.6,446 824.9,402.9 		"/>
		<polygon fill="#FFC715" points="1028.9,376.3 1022.7,370.4 1031.6,359.9 1028.9,359.9 1005,359.9 983.8,359.9 955.7,392.9 
			950.1,387.5 936.9,402.9 973.6,446 1019.3,446 1019.3,446 1042.9,446 1006.2,402.9 		"/>
		<polygon fill="#FFC715" points="938.3,376.3 932.1,370.4 941,359.9 927.6,359.9 893.1,359.9 865,392.9 859.5,387.5 846.3,402.9 
			883,446 888.3,446 888.3,446 941.9,446 941.9,446 952.3,446 915.6,402.9 		"/>
		<polygon fill="#FFC715" points="1119.6,376.3 1113.4,370.4 1122.3,359.9 1106.3,359.9 1082.4,359.9 1074.4,359.9 1046.3,392.9 
			1040.7,387.5 1027.6,402.9 1064.3,446 1096.7,446 1096.7,446 1120.5,446 1120.5,446 1133.5,446 1096.8,402.9 		"/>
		<polygon fill="#FFC715" points="1210.2,376.3 1204,370.4 1212.9,359.9 1183.7,359.9 1165,359.9 1136.9,392.9 1131.4,387.5 
			1118.2,402.9 1154.9,446 1174.1,446 1174.1,446 1198,446 1198,446 1224.2,446 1187.5,402.9 		"/>
		<polygon fill="#FFC715" points="485.1,376.3 478.9,370.4 487.9,359.9 487,359.9 463.2,359.9 440,359.9 411.9,392.9 406.3,387.5 
			393.1,402.9 429.8,446 477.4,446 477.4,446 499.1,446 462.4,402.9 		"/>
		<polygon fill="#FFC715" points="575.8,376.3 569.6,370.4 578.5,359.9 564.4,359.9 540.6,359.9 530.6,359.9 502.5,392.9 
			496.9,387.5 483.8,402.9 520.5,446 554.8,446 554.8,446 578.7,446 578.7,446 589.7,446 553,402.9 		"/>
		<polygon fill="#FFC715" points="394.5,376.3 388.3,370.4 397.2,359.9 385.7,359.9 349.3,359.9 321.2,392.9 315.7,387.5 
			302.5,402.9 339.2,446 346.5,446 346.5,446 400,446 400,446 408.5,446 371.8,402.9 		"/>
		<polygon fill="#FFC715" points="666.4,376.3 660.2,370.4 669.1,359.9 641.8,359.9 621.2,359.9 593.1,392.9 587.6,387.5 
			574.4,402.9 611.1,446 632.2,446 632.2,446 656.1,446 656.1,446 680.4,446 643.7,402.9 		"/>
		<polygon fill="#FFC715" points="757,376.3 750.8,370.4 759.8,359.9 719.2,359.9 711.9,359.9 683.8,392.9 678.2,387.5 665,402.9 
			701.7,446 709.6,446 709.6,446 733.5,446 733.5,446 771,446 734.3,402.9 		"/>
		<polygon fill="#FFC715" points="1336.2,359.9 1312.6,387.5 1318.2,392.9 1346.3,359.9 1338.5,359.9 		"/>
		<polygon fill="#FFC715" points="1314.6,359.9 1303.5,359.9 1294.6,370.4 1300.8,376.3 1314.8,359.9 		"/>
		<polygon fill="#FFC715" points="1212.9,359.9 1204,370.4 1210.2,376.3 1224.2,359.9 		"/>
		<polygon fill="#FFC715" points="1222,387.5 1227.6,392.9 1255.7,359.9 1245.5,359.9 		"/>
		<polygon fill="#FFC715" points="1122.3,359.9 1113.4,370.4 1119.6,376.3 1133.5,359.9 		"/>
		<polygon fill="#FFC715" points="1154.9,359.9 1131.4,387.5 1136.9,392.9 1165,359.9 1159.8,359.9 		"/>
		<polygon fill="#FFC715" points="1031.6,359.9 1022.7,370.4 1028.9,376.3 1042.9,359.9 		"/>
		<polygon fill="#FFC715" points="1040.7,387.5 1046.3,392.9 1074.4,359.9 1064.3,359.9 		"/>
		<polygon fill="#FFC715" points="950.1,387.5 955.7,392.9 983.8,359.9 973.6,359.9 		"/>
		<polygon fill="#FFC715" points="951.5,359.9 941,359.9 932.1,370.4 938.3,376.3 952.3,359.9 		"/>
		<polygon fill="#FFC715" points="859.5,387.5 865,392.9 893.1,359.9 883,359.9 		"/>
		<polygon fill="#FFC715" points="850.4,359.9 841.5,370.4 847.7,376.3 861.6,359.9 		"/>
		<polygon fill="#FFC715" points="759.8,359.9 750.8,370.4 757,376.3 771,359.9 		"/>
		<polygon fill="#FFC715" points="792.4,359.9 768.8,387.5 774.4,392.9 802.5,359.9 796.6,359.9 		"/>
		<polygon fill="#FFC715" points="678.2,387.5 683.8,392.9 711.9,359.9 701.7,359.9 		"/>
		<polygon fill="#FFC715" points="669.1,359.9 660.2,370.4 666.4,376.3 680.4,359.9 		"/>
		<polygon fill="#FFC715" points="611.1,359.9 587.6,387.5 593.1,392.9 621.2,359.9 618,359.9 		"/>
		<polygon fill="#FFC715" points="578.5,359.9 569.6,370.4 575.8,376.3 589.7,359.9 		"/>
		<polygon fill="#FFC715" points="496.9,387.5 502.5,392.9 530.6,359.9 520.5,359.9 		"/>
		<polygon fill="#FFC715" points="487.9,359.9 478.9,370.4 485.1,376.3 499.1,359.9 		"/>
		<polygon fill="#FFC715" points="397.2,359.9 388.3,370.4 394.5,376.3 408.5,359.9 		"/>
		<polygon fill="#FFC715" points="406.3,387.5 411.9,392.9 440,359.9 429.8,359.9 		"/>
		<polygon fill="#FFC715" points="315.7,387.5 321.2,392.9 349.3,359.9 339.2,359.9 		"/>
		<polygon fill="#FFC715" points="308.3,359.9 306.6,359.9 297.7,370.4 303.9,376.3 317.8,359.9 		"/>
		<polygon fill="#FFC715" points="248.6,359.9 225,387.5 230.6,392.9 258.7,359.9 254.8,359.9 		"/>
		<polygon fill="#FFC715" points="216,359.9 207,370.4 213.3,376.3 227.2,359.9 		"/>
		<polygon fill="#FFC715" points="125.3,359.9 116.4,370.4 122.6,376.3 136.6,359.9 		"/>
		<polygon fill="#FFC715" points="134.4,387.5 140,392.9 168.1,359.9 158,359.9 		"/>
		<polygon fill="#FFC715" points="32,376.3 46,359.9 34.7,359.9 25.8,370.4 		"/>
		<polygon fill="#FFC715" points="67.3,359.9 43.8,387.5 49.3,392.9 77.4,359.9 76.1,359.9 		"/>
		<polygon fill="#371000" points="43.8,387.5 32,376.3 9.3,402.9 46,446 67.3,446 30.6,402.9 		"/>
		<polygon fill="#371000" points="46,359.9 32,376.3 43.8,387.5 67.3,359.9 		"/>
		<polygon fill="#371000" points="134.4,387.5 122.6,376.3 99.9,402.9 136.6,446 158,446 121.3,402.9 		"/>
		<polygon fill="#371000" points="153.5,359.9 136.6,359.9 122.6,376.3 134.4,387.5 158,359.9 		"/>
		<polygon fill="#371000" points="225,387.5 213.3,376.3 190.5,402.9 227.2,446 245.2,446 245.2,446 248.6,446 211.9,402.9 		"/>
		<polygon fill="#371000" points="230.9,359.9 227.2,359.9 213.3,376.3 225,387.5 248.6,359.9 		"/>
		<polygon fill="#371000" points="315.7,387.5 303.9,376.3 281.1,402.9 317.8,446 322.6,446 322.6,446 339.2,446 302.5,402.9 		"/>
		<polygon fill="#371000" points="332.2,359.9 317.8,359.9 303.9,376.3 315.7,387.5 339.2,359.9 		"/>
		<polygon fill="#371000" points="406.3,387.5 394.5,376.3 371.8,402.9 408.5,446 423.9,446 423.9,446 429.8,446 393.1,402.9 		"/>
		<polygon fill="#371000" points="409.6,359.9 408.5,359.9 394.5,376.3 406.3,387.5 429.8,359.9 		"/>
		<polygon fill="#371000" points="496.9,387.5 485.1,376.3 462.4,402.9 499.1,446 501.3,446 501.3,446 520.5,446 483.8,402.9 		"/>
		<polygon fill="#371000" points="499.1,359.9 485.1,376.3 496.9,387.5 520.5,359.9 		"/>
		<polygon fill="#371000" points="587.6,387.5 575.8,376.3 553,402.9 589.7,446 611.1,446 574.4,402.9 		"/>
		<polygon fill="#371000" points="589.7,359.9 575.8,376.3 587.6,387.5 611.1,359.9 		"/>
		<polygon fill="#371000" points="678.2,387.5 666.4,376.3 643.7,402.9 680.4,446 701.7,446 665,402.9 		"/>
		<polygon fill="#371000" points="695.4,359.9 680.4,359.9 666.4,376.3 678.2,387.5 701.7,359.9 		"/>
		<polygon fill="#371000" points="768.8,387.5 757,376.3 734.3,402.9 771,446 787.1,446 787.1,446 792.4,446 755.7,402.9 		"/>
		<polygon fill="#371000" points="772.8,359.9 771,359.9 757,376.3 768.8,387.5 792.4,359.9 		"/>
		<polygon fill="#371000" points="859.5,387.5 847.7,376.3 824.9,402.9 861.6,446 864.5,446 864.5,446 883,446 846.3,402.9 		"/>
		<polygon fill="#371000" points="874,359.9 861.6,359.9 847.7,376.3 859.5,387.5 883,359.9 		"/>
		<polygon fill="#371000" points="950.1,387.5 938.3,376.3 915.6,402.9 952.3,446 965.7,446 965.7,446 973.6,446 936.9,402.9 		"/>
		<polygon fill="#371000" points="952.3,359.9 938.3,376.3 950.1,387.5 973.6,359.9 		"/>
		<polygon fill="#371000" points="1040.7,387.5 1028.9,376.3 1006.2,402.9 1042.9,446 1043.1,446 1043.1,446 1064.3,446 
			1027.6,402.9 		"/>
		<polygon fill="#371000" points="1042.9,359.9 1028.9,376.3 1040.7,387.5 1064.3,359.9 		"/>
		<polygon fill="#371000" points="1131.4,387.5 1119.6,376.3 1096.8,402.9 1133.5,446 1154.9,446 1118.2,402.9 		"/>
		<polygon fill="#371000" points="1133.5,359.9 1119.6,376.3 1131.4,387.5 1154.9,359.9 		"/>
		<polygon fill="#371000" points="1222,387.5 1210.2,376.3 1187.5,402.9 1224.2,446 1245.5,446 1208.8,402.9 		"/>
		<polygon fill="#371000" points="1237.2,359.9 1224.2,359.9 1210.2,376.3 1222,387.5 1245.5,359.9 		"/>
		<polygon fill="#371000" points="1312.6,387.5 1300.8,376.3 1278.1,402.9 1314.8,446 1328.9,446 1328.9,446 1336.2,446 
			1299.5,402.9 		"/>
		<polygon fill="#371000" points="1314.8,359.9 1300.8,376.3 1312.6,387.5 1336.2,359.9 		"/>
		<polygon fill="#371000" points="1390.1,402.9 1402,389 1402,378.9 1402,363.9 1368.7,402.9 1402,442 1402,416.9 		"/>
	</g>
</g>
<g id="Designed_by_Vecteezy">
	<g>
		<g>
			<g>
				<path fill="#4D3F38" d="M732.3,937.7c0.8,0,1.6,0.7,1.6,0.7L720,968.2c-1.5,0-5.2,0.2-6.1,0.2c-0.8,0-1.6-0.7-1.6-0.7l-4.8-29.8
					c2.9,0,6.5-0.2,7.6-0.2c0.8,0,1.6,0.7,1.6,0.7l1.5,14.6c0.1,1.3,0.1,3,0.1,4.8c0.5-2,1-3.9,1.5-5.2l5.8-14.7
					C728.1,937.9,731.3,937.7,732.3,937.7L732.3,937.7z"/>
			</g>
			<g>
				<path fill="#4D3F38" d="M746.6,952.4c0,3.2-1.8,5.4-6.3,6.3l-4.7,1c0.4,2,1.6,3,3.8,3c2.6,0,4.4-2,4.4-2s1.3,0.7,1.3,2.3
					c0,2.7-4.1,5.6-9,5.6c-4.9,0-8.1-3.1-8.1-8.3c0-6,4.3-14.2,11.9-14.2C744,946.1,746.6,948.6,746.6,952.4L746.6,952.4z
					 M738.6,955.5c1-0.3,1.3-1.2,1.3-2.1c0-0.9-0.3-2.2-1.3-2.2c-1.9,0-2.7,3-3,5.3L738.6,955.5z"/>
			</g>
			<g>
				<path fill="#4D3F38" d="M759.4,946.1c3.8,0,6.7,2,6.7,4.7c0,3.3-4,4.5-4,4.5s-1.2-3.6-3.9-3.6c-1.8,0-2.9,1.8-2.9,5.8
					c0,3.6,1,5.2,3.3,5.2c2.4,0,3.9-1.6,3.9-1.6s1.3,0.7,1.3,2.2c0,2.6-4,5.3-8.6,5.3c-4.9,0-8-3.1-8-8.2
					C747.3,954.3,751.7,946.1,759.4,946.1L759.4,946.1z"/>
			</g>
			<g>
				<path fill="#4D3F38" d="M777.8,941.3c0.9,0,1.5,0.7,1.5,0.7l-0.7,4.5h4.8l-1.1,3.5c-0.4,1.1-0.9,1.7-2,1.7h-2.5l-1.4,8.9
					c-0.2,1.4,0.1,2.1,1.1,2.1c0.9,0,1.8-0.5,1.8-0.5s1.3,0.7,1.3,2.2c0,2.2-3.1,4.3-7,4.3c-4.1,0-5.8-2.5-5.1-7l1.6-9.9h-2.6
					l1.1-3.6c0.3-0.9,1.1-1.6,2-1.6h1.3l1.5-4.2C775.2,941.9,777,941.3,777.8,941.3L777.8,941.3z"/>
			</g>
			<g>
				<path fill="#4D3F38" d="M801.2,952.4c0,3.2-1.8,5.4-6.3,6.3l-4.7,1c0.4,2,1.6,3,3.8,3c2.6,0,4.4-2,4.4-2s1.3,0.7,1.3,2.3
					c0,2.7-4.1,5.6-9,5.6c-4.9,0-8.1-3.1-8.1-8.3c0-6,4.3-14.2,11.9-14.2C798.6,946.1,801.2,948.6,801.2,952.4L801.2,952.4z
					 M793.2,955.5c1-0.3,1.3-1.2,1.3-2.1c0-0.9-0.3-2.2-1.3-2.2c-1.9,0-2.7,3-3,5.3L793.2,955.5z"/>
			</g>
			<g>
				<path fill="#4D3F38" d="M820.5,952.4c0,3.2-1.8,5.4-6.3,6.3l-4.7,1c0.4,2,1.6,3,3.8,3c2.6,0,4.4-2,4.4-2s1.3,0.7,1.3,2.3
					c0,2.7-4.1,5.6-9,5.6c-4.9,0-8.1-3.1-8.1-8.3c0-6,4.3-14.2,11.9-14.2C817.9,946.1,820.5,948.6,820.5,952.4L820.5,952.4z
					 M812.5,955.5c1-0.3,1.3-1.2,1.3-2.1c0-0.9-0.3-2.2-1.3-2.2c-1.9,0-2.7,3-3,5.3L812.5,955.5z"/>
			</g>
			<g>
				<path fill="#4D3F38" d="M836.3,960.5c0,0,1.6,1.5,1.6,4c0,3.3-2.8,4.2-5.2,4.2c-3.1,0-5.3-1.5-7.6-2.3c-0.6,0.7-1.3,1.5-1.9,2.3
					c0,0-3.5-0.1-3.5-2.4c0-2.9,4.8-7.8,9.9-13.4c-0.6-0.1-1.2-0.2-1.7-0.2c-2.9,0-4.1,1.5-4.1,1.5s-1.5-1.7-1.4-4
					c0.2-3.1,3.1-4,5.5-4c2.5,0,4.3,1,6.1,1.7l1.5-1.7c0,0,3.5,0.1,3.5,2.5c0,2.8-4.6,7.6-9.6,13c1.1,0.3,2,0.5,3,0.5
					C835.1,962.2,836.3,960.5,836.3,960.5L836.3,960.5z"/>
			</g>
			<g>
				<path fill="#4D3F38" d="M858.7,966.7c-1.2,7.6-6.4,11.4-13,11.4c-4.2,0-7.3-2.2-7.3-4.8c0-1.7,1.4-2.5,1.4-2.5s1.4,1.3,4.2,1.3
					c2.6,0,6.2-1.1,6.8-5.1l0.5-3.1c-1.8,2.6-4.1,4.6-7.1,4.6c-3.3,0-4.8-2.7-3.9-8.3l0.9-6c0.6-3.7,0.7-6.7,0.7-6.7
					c2.4-0.4,5.5-1.5,6.6-1.5c0.8,0,1.6,0.7,1.6,0.7l-1.2,7.5l-1.1,6.9c-0.1,0.6,0,1,0.6,1c2.8,0,4.3-7.9,4.3-7.9
					c0.6-3.7,0.7-6.7,0.7-6.7c2.4-0.4,5.5-1.5,6.6-1.5c0.9,0,1.6,0.7,1.6,0.7l-1.2,7.5L858.7,966.7z"/>
			</g>
		</g>
		<g>
			<path fill="#4D3F38" d="M538.1,947.4h7.4c1.7,0,3,0.1,3.8,0.4c1.2,0.3,2.2,1,3,1.9c0.8,0.9,1.5,2,1.9,3.3
				c0.4,1.3,0.7,2.9,0.7,4.8c0,1.7-0.2,3.1-0.6,4.3c-0.5,1.5-1.2,2.7-2.2,3.6c-0.7,0.7-1.7,1.2-2.9,1.6c-0.9,0.3-2.1,0.4-3.6,0.4
				h-7.7V947.4z M542.2,950.8v13.4h3c1.1,0,2-0.1,2.5-0.2c0.7-0.2,1.2-0.4,1.6-0.8c0.4-0.4,0.8-1,1.1-1.9c0.3-0.9,0.4-2.1,0.4-3.7
				s-0.1-2.8-0.4-3.6s-0.7-1.5-1.2-2c-0.5-0.5-1.1-0.8-1.9-0.9c-0.6-0.1-1.7-0.2-3.3-0.2H542.2z"/>
			<path fill="#4D3F38" d="M566.4,962.9l3.9,0.6c-0.5,1.4-1.3,2.5-2.3,3.2s-2.4,1.1-4,1.1c-2.5,0-4.4-0.8-5.6-2.5
				c-1-1.3-1.4-3-1.4-5c0-2.4,0.6-4.3,1.9-5.7c1.3-1.4,2.9-2.1,4.8-2.1c2.2,0,3.9,0.7,5.1,2.2c1.3,1.4,1.9,3.6,1.8,6.6h-9.7
				c0,1.1,0.3,2,0.9,2.7c0.6,0.6,1.3,1,2.2,1c0.6,0,1.1-0.2,1.5-0.5C565.8,964.1,566.2,963.6,566.4,962.9z M566.6,959
				c0-1.1-0.3-2-0.9-2.6c-0.6-0.6-1.2-0.9-2-0.9c-0.8,0-1.5,0.3-2.1,0.9c-0.6,0.6-0.8,1.4-0.8,2.5H566.6z"/>
			<path fill="#4D3F38" d="M571.6,963.4l3.9-0.6c0.2,0.8,0.5,1.3,1,1.7c0.5,0.4,1.2,0.6,2.1,0.6c1,0,1.8-0.2,2.3-0.6
				c0.3-0.3,0.5-0.6,0.5-1c0-0.3-0.1-0.5-0.3-0.7c-0.2-0.2-0.6-0.4-1.3-0.5c-3.1-0.7-5.1-1.3-5.9-1.9c-1.2-0.8-1.7-1.9-1.7-3.3
				c0-1.3,0.5-2.3,1.5-3.2c1-0.9,2.6-1.3,4.7-1.3c2,0,3.5,0.3,4.5,1c1,0.7,1.6,1.6,2,2.9l-3.6,0.7c-0.2-0.6-0.5-1-0.9-1.3
				c-0.4-0.3-1.1-0.5-1.9-0.5c-1,0-1.7,0.1-2.2,0.4c-0.3,0.2-0.4,0.5-0.4,0.8c0,0.3,0.1,0.5,0.4,0.7c0.3,0.3,1.6,0.6,3.6,1.1
				c2.1,0.5,3.5,1,4.3,1.7c0.8,0.7,1.2,1.6,1.2,2.9c0,1.3-0.6,2.5-1.7,3.5c-1.1,1-2.8,1.4-5,1.4c-2,0-3.6-0.4-4.7-1.2
				C572.8,965.8,572,964.7,571.6,963.4z"/>
			<path fill="#4D3F38" d="M588.1,950.9v-3.6h3.9v3.6H588.1z M588.1,967.5v-14.6h3.9v14.6H588.1z"/>
			<path fill="#4D3F38" d="M595,968.5l4.4,0.5c0.1,0.5,0.2,0.9,0.5,1.1c0.4,0.3,0.9,0.4,1.7,0.4c1,0,1.8-0.2,2.3-0.5
				c0.3-0.2,0.6-0.5,0.8-1c0.1-0.3,0.2-0.9,0.2-1.8v-2.1c-1.2,1.6-2.6,2.4-4.4,2.4c-2,0-3.5-0.8-4.7-2.5c-0.9-1.3-1.3-2.9-1.3-4.9
				c0-2.4,0.6-4.3,1.8-5.6c1.2-1.3,2.6-1.9,4.4-1.9c1.8,0,3.3,0.8,4.5,2.4v-2.1h3.6V966c0,1.7-0.1,3-0.4,3.9s-0.7,1.5-1.2,2
				c-0.5,0.5-1.2,0.9-2.1,1.1c-0.9,0.3-1.9,0.4-3.3,0.4c-2.5,0-4.2-0.4-5.3-1.3c-1-0.8-1.6-1.9-1.6-3.2
				C595,968.8,595,968.7,595,968.5z M598.5,959.9c0,1.6,0.3,2.7,0.9,3.4c0.6,0.7,1.3,1.1,2.2,1.1c0.9,0,1.7-0.4,2.4-1.1
				c0.7-0.7,1-1.8,1-3.3c0-1.5-0.3-2.6-0.9-3.4c-0.6-0.7-1.4-1.1-2.4-1.1c-0.9,0-1.7,0.4-2.3,1.1
				C598.8,957.3,598.5,958.4,598.5,959.9z"/>
			<path fill="#4D3F38" d="M625.3,967.5h-3.9v-7.5c0-1.6-0.1-2.6-0.2-3.1c-0.2-0.5-0.4-0.8-0.8-1.1c-0.4-0.3-0.8-0.4-1.3-0.4
				c-0.7,0-1.3,0.2-1.8,0.6c-0.5,0.4-0.9,0.9-1.1,1.5c-0.2,0.6-0.3,1.7-0.3,3.4v6.6H612v-14.6h3.6v2.1c1.3-1.7,2.9-2.5,4.8-2.5
				c0.9,0,1.6,0.2,2.3,0.5c0.7,0.3,1.2,0.7,1.6,1.2c0.4,0.5,0.6,1,0.8,1.6c0.1,0.6,0.2,1.5,0.2,2.6V967.5z"/>
			<path fill="#4D3F38" d="M637.2,962.9l3.9,0.6c-0.5,1.4-1.3,2.5-2.3,3.2s-2.4,1.1-4,1.1c-2.5,0-4.4-0.8-5.6-2.5
				c-1-1.3-1.4-3-1.4-5c0-2.4,0.6-4.3,1.9-5.7c1.3-1.4,2.9-2.1,4.8-2.1c2.2,0,3.9,0.7,5.1,2.2c1.3,1.4,1.9,3.6,1.8,6.6h-9.7
				c0,1.1,0.3,2,0.9,2.7c0.6,0.6,1.3,1,2.2,1c0.6,0,1.1-0.2,1.5-0.5C636.6,964.1,636.9,963.6,637.2,962.9z M637.4,959
				c0-1.1-0.3-2-0.9-2.6c-0.6-0.6-1.2-0.9-2-0.9c-0.8,0-1.5,0.3-2.1,0.9c-0.6,0.6-0.8,1.4-0.8,2.5H637.4z"/>
			<path fill="#4D3F38" d="M657.2,967.5h-3.6v-2.1c-0.6,0.8-1.3,1.5-2.1,1.9c-0.8,0.4-1.6,0.6-2.5,0.6c-1.7,0-3.1-0.7-4.3-2
				c-1.2-1.4-1.8-3.2-1.8-5.7c0-2.5,0.6-4.4,1.7-5.7c1.2-1.3,2.6-1.9,4.4-1.9c1.6,0,3,0.7,4.2,2v-7.3h3.9V967.5z M646.9,959.9
				c0,1.6,0.2,2.7,0.6,3.4c0.6,1,1.5,1.5,2.6,1.5c0.9,0,1.6-0.4,2.3-1.1c0.6-0.8,0.9-1.9,0.9-3.4c0-1.7-0.3-2.9-0.9-3.6
				c-0.6-0.7-1.4-1.1-2.3-1.1c-0.9,0-1.7,0.4-2.3,1.1C647.2,957.4,646.9,958.5,646.9,959.9z"/>
			<path fill="#4D3F38" d="M667.6,967.5v-20.2h3.9v7.3c1.2-1.4,2.6-2,4.2-2c1.8,0,3.3,0.6,4.4,1.9c1.2,1.3,1.7,3.1,1.7,5.6
				c0,2.5-0.6,4.4-1.8,5.8c-1.2,1.3-2.6,2-4.3,2c-0.8,0-1.7-0.2-2.5-0.6c-0.8-0.4-1.5-1-2.1-1.9v2.1H667.6z M671.4,959.9
				c0,1.5,0.2,2.6,0.7,3.4c0.7,1,1.6,1.5,2.7,1.5c0.9,0,1.6-0.4,2.2-1.1c0.6-0.7,0.9-1.9,0.9-3.4c0-1.7-0.3-2.9-0.9-3.6
				c-0.6-0.7-1.4-1.1-2.3-1.1c-0.9,0-1.7,0.4-2.3,1.1C671.7,957.3,671.4,958.4,671.4,959.9z"/>
			<path fill="#4D3F38" d="M682.6,952.9h4.1l3.5,10.4l3.4-10.4h4l-5.2,14.1l-0.9,2.5c-0.3,0.9-0.7,1.5-1,2c-0.3,0.4-0.7,0.8-1.1,1.1
				c-0.4,0.3-0.9,0.5-1.5,0.7c-0.6,0.2-1.2,0.2-2,0.2c-0.7,0-1.5-0.1-2.2-0.2l-0.3-3c0.6,0.1,1.2,0.2,1.6,0.2c0.9,0,1.6-0.3,2-0.8
				c0.4-0.5,0.8-1.2,1-2L682.6,952.9z"/>
		</g>
	</g>
</g>
</svg>
